<svg xmlns="http://www.w3.org/2000/svg" viewBox="0 0 128 128">
  <path fill="#512BD4" d="M61.195.008c-1.725.149-3.384.643-4.873 1.435-4.644 2.677-7.523 7.554-7.523 12.815 0 1.544.243 3.053.674 4.48l.002-.01c.97 3.061 2.922 5.782 5.595 7.738l70.25 52.603c.046.034.091.07.137.103l.002-.004c4.775 3.342 11.5 2.66 15.488-1.593 2.987-3.215 3.844-7.719 2.31-11.706l-.014.033a12.441 12.441 0 00-5.69-6.98L67.31 6.129l.004.008a12.493 12.493 0 00-6.119-6.13zm-18.166 49.78c-2.601.087-5.183.945-7.416 2.598L5.223 75.53l.004.007a12.493 12.493 0 00-5.203 6.89l-.002-.004C-.968 85.568.162 89.328 2.57 92.479c3.139 4.094 8.773 5.61 13.613 3.647 1.555-.661 2.972-1.626 4.18-2.826L50.94 70.312c4.434-3.921 5.183-10.395 1.838-15.175l.004.008c-2.271-3.274-5.959-5.357-9.753-5.357zm86.568 12.757c-1.773.072-3.535.57-5.145 1.497L91.948 86.95c-4.625 2.892-6.223 8.382-3.792 12.972l-.004-.008c1.632 3.06 4.664 5.033 8.02 5.297 1.299.12 2.614.024 3.873-.297.02-.002.037-.009.055-.012l-.002.004c2.524-.503 4.816-1.758 6.564-3.642l31.515-27.92c2.812-2.49 3.888-6.37 2.705-9.916-1.182-3.546-4.324-6.09-8.013-6.467a9.457 9.457 0 00-3.272.084zm-70.265 33.563c-1.912.117-3.794.796-5.404 2.015l-35.864 27.14c-2.995 2.269-4.484 5.914-3.875 9.527.61 3.613 3.211 6.617 6.728 7.773 1.304.457 2.683.67 4.055.626 3.433.093 6.772-1.264 9.196-3.785l35.864-27.14c2.995-2.269 4.484-5.914 3.875-9.527-.61-3.613-3.211-6.617-6.728-7.773-2.516-.814-5.25-.882-7.847.144z"/>
</svg> 