<svg xmlns="http://www.w3.org/2000/svg" viewBox="0 0 128 128">
  <path fill="#4CAF50" d="M64 0C28.7 0 0 28.7 0 64s28.7 64 64 64 64-28.7 64-64S99.3 0 64 0zm0 115.2c-28.3 0-51.2-23-51.2-51.2S35.7 12.8 64 12.8s51.2 23 51.2 51.2-22.9 51.2-51.2 51.2z"/>
  <path fill="#4CAF50" d="M64 25.6c-21.2 0-38.4 17.2-38.4 38.4S42.8 102.4 64 102.4c21.2 0 38.4-17.2 38.4-38.4S85.2 25.6 64 25.6zm0 64c-14.1 0-25.6-11.5-25.6-25.6S49.9 38.4 64 38.4 89.6 49.9 89.6 64 78.1 89.6 64 89.6z"/>
  <circle fill="#4CAF50" cx="64" cy="64" r="12.8"/>
</svg> 