<svg xmlns="http://www.w3.org/2000/svg" viewBox="0 0 128 128">
  <path fill="#68217A" d="M117.5 33.5l.3-.2c-.6-1.1-1.5-2.1-2.4-2.6L67.1 2.9c-.8-.5-1.9-.7-3.1-.7-1.2 0-2.3.3-3.1.7L12.6 30.7c-1.7 1-3.4 3.5-3.4 5.4v55.7c0 1.1.7 2.3 1.4 3.4l.3.2c.7 1.1 1.5 2 2.4 2.5l47.3 27.1c.8.5 1.9.7 3.1.7 1.2 0 2.3-.3 3.1-.7l47.3-27.1c1.7-1 3.4-3.5 3.4-5.4V36.1c0-.8.4-1.8 0-2.6zm-53.5 70c-13.3 0-24-10.7-24-24s10.7-24 24-24c10.5 0 19.5 6.8 22.7 16.2h-8.3c-2.7-5.9-8.7-10-15.7-10-9.4 0-17 7.6-17 17s7.6 17 17 17c7.1 0 13.1-4.2 15.7-10h8.3c-3.2 9.4-12.2 16.2-22.7 16.2zm31.7-16h-3.7v3.7h-3.7v-3.7h-3.7v-3.7h3.7v-3.7h3.7v3.7h3.7v3.7z"/>
</svg> 